<svg width="400" height="300" viewBox="0 0 400 300" xmlns="http://www.w3.org/2000/svg">
  <defs>
    <linearGradient id="designerGradient" x1="0%" y1="0%" x2="100%" y2="100%">
      <stop offset="0%" style="stop-color:#8b5cf6;stop-opacity:1" />
      <stop offset="100%" style="stop-color:#7c3aed;stop-opacity:1" />
    </linearGradient>
  </defs>
  
  <!-- Background -->
  <rect width="400" height="300" fill="url(#designerGradient)"/>
  
  <!-- Designer saree pattern -->
  <path d="M70 70 Q170 50 270 70 Q330 90 330 150 Q330 210 270 230 Q170 250 70 230 Q70 190 70 70 Z" 
        fill="#ffffff" opacity="0.4"/>
  
  <!-- Designer elements -->
  <polygon points="150,110 160,130 180,130 166,145 172,165 150,152 128,165 134,145 120,130 140,130" 
           fill="#ffffff" opacity="0.6"/>
  <polygon points="250,120 260,140 280,140 266,155 272,175 250,162 228,175 234,155 220,140 240,140" 
           fill="#ffffff" opacity="0.6"/>
  
  <!-- Text -->
  <text x="200" y="165" text-anchor="middle" fill="#ffffff" font-size="26" font-weight="bold">
    Designer Sarees
  </text>
</svg>