<svg width="400" height="500" viewBox="0 0 400 500" xmlns="http://www.w3.org/2000/svg">
  <defs>
    <linearGradient id="cottonGradient" x1="0%" y1="0%" x2="100%" y2="100%">
      <stop offset="0%" style="stop-color:#3b82f6;stop-opacity:1" />
      <stop offset="50%" style="stop-color:#2563eb;stop-opacity:1" />
      <stop offset="100%" style="stop-color:#1d4ed8;stop-opacity:1" />
    </linearGradient>
    <pattern id="handloomPattern" x="0" y="0" width="40" height="40" patternUnits="userSpaceOnUse">
      <rect width="40" height="40" fill="#3b82f6"/>
      <rect x="0" y="0" width="20" height="20" fill="#ffffff" opacity="0.3"/>
      <rect x="20" y="20" width="20" height="20" fill="#ffffff" opacity="0.3"/>
    </pattern>
  </defs>
  
  <!-- Background -->
  <rect width="400" height="500" fill="#f8fafc"/>
  
  <!-- Main saree body -->
  <path d="M80 80 Q200 60 320 80 Q360 100 360 250 Q360 400 320 420 Q200 440 80 420 Q40 400 40 250 Q40 100 80 80 Z" 
        fill="url(#cottonGradient)" stroke="#1e40af" stroke-width="2"/>
  
  <!-- Handloom pattern overlay -->
  <path d="M90 90 Q200 75 310 90 Q345 105 345 250 Q345 395 310 410 Q200 425 90 410 Q55 395 55 250 Q55 105 90 90 Z" 
        fill="url(#handloomPattern)" opacity="0.4"/>
  
  <!-- Traditional border -->
  <path d="M80 80 Q200 60 320 80 Q360 100 360 250 Q360 400 320 420 Q200 440 80 420 Q40 400 40 250 Q40 100 80 80 Z" 
        fill="none" stroke="#ffffff" stroke-width="4" opacity="0.8"/>
  
  <!-- Block print motifs -->
  <rect x="110" y="140" width="15" height="15" fill="#ffffff" opacity="0.6" transform="rotate(45 117.5 147.5)"/>
  <rect x="270" y="140" width="15" height="15" fill="#ffffff" opacity="0.6" transform="rotate(45 277.5 147.5)"/>
  <rect x="190" y="190" width="20" height="20" fill="#ffffff" opacity="0.6" transform="rotate(45 200 200)"/>
  <rect x="140" y="240" width="12" height="12" fill="#ffffff" opacity="0.6" transform="rotate(45 146 246)"/>
  <rect x="240" y="240" width="12" height="12" fill="#ffffff" opacity="0.6" transform="rotate(45 246 246)"/>
  <rect x="110" y="290" width="15" height="15" fill="#ffffff" opacity="0.6" transform="rotate(45 117.5 297.5)"/>
  <rect x="270" y="290" width="15" height="15" fill="#ffffff" opacity="0.6" transform="rotate(45 277.5 297.5)"/>
  <rect x="190" y="340" width="20" height="20" fill="#ffffff" opacity="0.6" transform="rotate(45 200 350)"/>
  
  <!-- Handloom texture lines -->
  <line x1="60" y1="120" x2="340" y2="120" stroke="#ffffff" stroke-width="1" opacity="0.3"/>
  <line x1="60" y1="160" x2="340" y2="160" stroke="#ffffff" stroke-width="1" opacity="0.3"/>
  <line x1="60" y1="200" x2="340" y2="200" stroke="#ffffff" stroke-width="1" opacity="0.3"/>
  <line x1="60" y1="240" x2="340" y2="240" stroke="#ffffff" stroke-width="1" opacity="0.3"/>
  <line x1="60" y1="280" x2="340" y2="280" stroke="#ffffff" stroke-width="1" opacity="0.3"/>
  <line x1="60" y1="320" x2="340" y2="320" stroke="#ffffff" stroke-width="1" opacity="0.3"/>
  <line x1="60" y1="360" x2="340" y2="360" stroke="#ffffff" stroke-width="1" opacity="0.3"/>
  <line x1="60" y1="400" x2="340" y2="400" stroke="#ffffff" stroke-width="1" opacity="0.3"/>
</svg>