<svg width="400" height="500" viewBox="0 0 400 500" xmlns="http://www.w3.org/2000/svg">
  <defs>
    <linearGradient id="redGradient" x1="0%" y1="0%" x2="100%" y2="100%">
      <stop offset="0%" style="stop-color:#dc2626;stop-opacity:1" />
      <stop offset="50%" style="stop-color:#b91c1c;stop-opacity:1" />
      <stop offset="100%" style="stop-color:#991b1b;stop-opacity:1" />
    </linearGradient>
    <linearGradient id="goldBorder" x1="0%" y1="0%" x2="100%" y2="100%">
      <stop offset="0%" style="stop-color:#fbbf24;stop-opacity:1" />
      <stop offset="50%" style="stop-color:#f59e0b;stop-opacity:1" />
      <stop offset="100%" style="stop-color:#d97706;stop-opacity:1" />
    </linearGradient>
    <linearGradient id="goldPattern" x1="0%" y1="0%" x2="100%" y2="0%">
      <stop offset="0%" style="stop-color:#fbbf24;stop-opacity:0.8" />
      <stop offset="50%" style="stop-color:#f59e0b;stop-opacity:0.9" />
      <stop offset="100%" style="stop-color:#fbbf24;stop-opacity:0.8" />
    </linearGradient>
  </defs>
  
  <!-- Background -->
  <rect width="400" height="500" fill="#f8fafc"/>
  
  <!-- Main saree body -->
  <path d="M80 80 Q200 60 320 80 Q360 100 360 250 Q360 400 320 420 Q200 440 80 420 Q40 400 40 250 Q40 100 80 80 Z" 
        fill="url(#redGradient)" stroke="#991b1b" stroke-width="2"/>
  
  <!-- Gold border at bottom -->
  <rect x="40" y="380" width="320" height="40" fill="url(#goldBorder)" opacity="0.95"/>
  
  <!-- Decorative gold border pattern -->
  <g opacity="0.9">
    <!-- Top border -->
    <rect x="40" y="80" width="320" height="8" fill="url(#goldBorder)"/>
    
    <!-- Side borders -->
    <rect x="40" y="80" width="8" height="340" fill="url(#goldBorder)"/>
    <rect x="352" y="80" width="8" height="340" fill="url(#goldBorder)"/>
    
    <!-- Decorative patterns on border -->
    <g fill="url(#goldPattern)">
      <!-- Top border pattern -->
      <circle cx="80" cy="84" r="3"/>
      <circle cx="120" cy="84" r="3"/>
      <circle cx="160" cy="84" r="3"/>
      <circle cx="200" cy="84" r="3"/>
      <circle cx="240" cy="84" r="3"/>
      <circle cx="280" cy="84" r="3"/>
      <circle cx="320" cy="84" r="3"/>
      
      <!-- Bottom border pattern -->
      <circle cx="80" cy="400" r="4"/>
      <circle cx="120" cy="400" r="4"/>
      <circle cx="160" cy="400" r="4"/>
      <circle cx="200" cy="400" r="4"/>
      <circle cx="240" cy="400" r="4"/>
      <circle cx="280" cy="400" r="4"/>
      <circle cx="320" cy="400" r="4"/>
    </g>
  </g>
  
  <!-- Subtle texture pattern -->
  <g opacity="0.3" fill="url(#goldPattern)">
    <!-- Diagonal lines for texture -->
    <path d="M60 100 L340 100" stroke="url(#goldPattern)" stroke-width="1" opacity="0.4"/>
    <path d="M60 140 L340 140" stroke="url(#goldPattern)" stroke-width="1" opacity="0.4"/>
    <path d="M60 180 L340 180" stroke="url(#goldPattern)" stroke-width="1" opacity="0.4"/>
    <path d="M60 220 L340 220" stroke="url(#goldPattern)" stroke-width="1" opacity="0.4"/>
    <path d="M60 260 L340 260" stroke="url(#goldPattern)" stroke-width="1" opacity="0.4"/>
    <path d="M60 300 L340 300" stroke="url(#goldPattern)" stroke-width="1" opacity="0.4"/>
    <path d="M60 340 L340 340" stroke="url(#goldPattern)" stroke-width="1" opacity="0.4"/>
  </g>
  
  <!-- Central decorative motif -->
  <g transform="translate(200,250)" opacity="0.8">
    <circle r="30" fill="url(#goldBorder)" opacity="0.7"/>
    <circle r="20" fill="url(#redGradient)" opacity="0.9"/>
    <circle r="12" fill="url(#goldBorder)" opacity="0.8"/>
    <circle r="6" fill="url(#redGradient)" opacity="0.9"/>
    
    <!-- Petals around center -->
    <g fill="url(#goldBorder)" opacity="0.7">
      <ellipse cx="0" cy="-25" rx="6" ry="12" transform="rotate(0)"/>
      <ellipse cx="0" cy="-25" rx="6" ry="12" transform="rotate(45)"/>
      <ellipse cx="0" cy="-25" rx="6" ry="12" transform="rotate(90)"/>
      <ellipse cx="0" cy="-25" rx="6" ry="12" transform="rotate(135)"/>
      <ellipse cx="0" cy="-25" rx="6" ry="12" transform="rotate(180)"/>
      <ellipse cx="0" cy="-25" rx="6" ry="12" transform="rotate(225)"/>
      <ellipse cx="0" cy="-25" rx="6" ry="12" transform="rotate(270)"/>
      <ellipse cx="0" cy="-25" rx="6" ry="12" transform="rotate(315)"/>
    </g>
  </g>
  
  <!-- Outer border -->
  <path d="M80 80 Q200 60 320 80 Q360 100 360 250 Q360 400 320 420 Q200 440 80 420 Q40 400 40 250 Q40 100 80 80 Z" 
        fill="none" stroke="url(#goldBorder)" stroke-width="3" opacity="0.9"/>
</svg>